<svg width="2995" height="603" viewBox="0 0 2995 603" fill="none" xmlns="http://www.w3.org/2000/svg">
<path d="M2995 595.278C2972.35 593.488 2867.91 590.928 2846.76 588.578C2835.76 587.358 2824.47 585.788 2813.27 585.258C2813.27 584.118 2813.35 582.988 2813.38 581.858C2813.58 573.688 2813.46 565.518 2813.28 557.358C2812.93 542.028 2812.04 526.668 2812.19 511.358C2812.26 503.168 2813.27 495.018 2813.97 486.868C2814.59 479.641 2815.21 472.415 2815.82 465.188C2819.15 464.941 2822.49 464.641 2825.82 464.288C2835.66 463.288 2845.82 460.878 2853.55 454.408C2857.04 451.508 2860.15 446.938 2860.81 442.408C2861.68 436.408 2859.98 430.808 2858.71 424.968C2855.88 411.968 2853.23 398.968 2849.5 386.188C2845.5 372.348 2842.26 358.278 2839.17 344.188C2837.65 337.188 2836.17 330.258 2834.54 323.308C2833.75 319.848 2832.94 316.395 2832.09 312.948C2831.71 311.438 2831.53 308.558 2830.72 306.678C2833.26 306.468 2835.79 306.218 2838.31 305.888C2847.29 304.739 2856.14 302.757 2864.75 299.968C2871.19 297.888 2877.83 295.968 2882.13 290.318C2891.76 277.688 2886.96 258.848 2881.92 245.478C2881.21 243.578 2880.29 241.718 2879.66 239.788C2879.03 237.858 2878.96 235.658 2878.29 233.678C2877.72 232.326 2877.05 231.019 2876.29 229.768C2875.06 227.438 2874.56 224.708 2873.69 222.208C2872.41 218.518 2870.92 214.898 2869.36 211.318C2867.46 206.928 2864.68 202.398 2863.62 197.728C2862.87 194.438 2861.25 191.518 2859.8 188.448C2857.8 184.268 2855.86 180.088 2853.8 175.938C2850.12 168.169 2845.99 160.623 2841.43 153.338C2837.39 146.873 2832.7 140.841 2827.43 135.338C2823.86 131.708 2819.67 128.468 2814.8 126.988C2813.01 125.164 2811.34 123.23 2809.8 121.198C2807.8 118.818 2805.64 116.788 2803.51 114.568C2798 108.848 2792.58 100.898 2792.51 92.6479C2792.51 88.7079 2793.59 84.8779 2794.42 81.0579C2795.35 76.7979 2795.89 72.4479 2796.62 68.1479C2797.43 63.9923 2797.87 59.7718 2797.92 55.5379C2797.91 53.82 2797.76 52.1054 2797.5 50.4079C2797.37 49.5579 2796.91 48.4079 2797.29 47.5579C2798.52 44.8779 2800.55 46.7179 2801.68 47.8679C2804.31 50.5179 2806.06 54.4579 2807.68 57.7679C2809.61 62.1054 2811.08 66.6335 2812.07 71.2779C2814.05 79.0618 2816.93 86.5889 2820.65 93.7079C2823.89 100.028 2828.07 105.998 2833.92 110.148C2837.44 112.638 2845.92 117.068 2848.47 110.888C2849.47 108.558 2848.21 106.388 2847.13 104.378C2844.89 100.3 2842.95 96.0621 2841.33 91.6979C2838.44 83.9474 2836.43 75.8971 2835.33 67.6979C2834.42 60.4079 2833.13 53.6979 2828.81 47.5479C2825.04 42.2179 2820.18 37.2679 2814.26 34.3579C2809.32 31.9279 2802.49 30.6079 2797.59 33.8779C2796 34.8979 2794.7 36.9979 2793 34.5979C2792.11 33.3579 2791.25 32.1079 2790.29 30.9179C2787.76 27.7679 2784.93 24.8679 2782.23 21.8579C2777.72 16.8579 2773.44 11.8579 2767.66 8.30791C2762.29 5.11405 2756.4 2.8775 2750.26 1.69791C2735.66 -1.37209 2719.83 -0.362091 2706 5.40791C2691.32 11.5679 2679.47 24.5579 2671.3 37.9979C2671.23 38.1304 2671.17 38.2715 2671.13 38.4179C2664.67 48.2606 2661.28 59.7969 2661.38 71.5679C2661.29 71.7724 2661.25 71.9949 2661.26 72.2179C2661.29 72.6346 2661.35 73.0487 2661.44 73.4579C2661.65 78.0203 2662.46 82.5355 2663.84 86.8879C2665.85 92.7914 2669.21 98.1416 2673.66 102.508C2675.91 104.598 2678.05 106.801 2680.08 109.108C2680.97 110.001 2681.67 111.066 2682.14 112.238C2682.18 112.395 2682.21 112.556 2682.23 112.718C2681.42 113.612 2680.87 114.712 2680.64 115.898C2680.64 116.113 2680.7 116.325 2680.79 116.517C2680.89 116.709 2681.03 116.877 2681.2 117.008C2681.37 117.139 2681.57 117.229 2681.78 117.272C2681.99 117.316 2682.21 117.311 2682.42 117.258C2683.69 116.978 2684.84 115.118 2685.12 113.798C2685.24 113.67 2685.38 113.559 2685.53 113.468C2686.43 112.978 2686.34 113.088 2687.12 114.228C2687.72 115.197 2688.17 116.243 2688.48 117.338C2689.19 119.621 2689.7 121.964 2689.99 124.338C2690.22 126.068 2690.07 128.218 2690.99 129.738C2692.65 132.388 2696.08 132.168 2698.6 131.038C2699.74 130.555 2700.83 129.987 2701.88 129.338C2702.14 129.838 2702.43 130.338 2702.72 130.858C2704.18 133.358 2704.47 137.168 2707.49 138.408C2708.54 138.793 2709.67 138.88 2710.76 138.658C2710.89 138.872 2711.07 139.053 2711.28 139.188C2716.58 142.458 2719.61 148.008 2725.63 150.318C2730.72 152.268 2735.91 150.848 2740.44 148.178C2743.69 146.143 2746.78 143.86 2749.68 141.348C2749.4 143.437 2748.95 145.499 2748.31 147.508C2745.84 155.338 2741.49 162.348 2737.83 169.638C2734.83 175.548 2732.22 181.938 2728.61 187.568C2726.94 185.448 2725.2 183.398 2723.44 181.428C2721.68 179.458 2719.73 177.428 2717.74 175.628C2717.59 173.138 2717.29 170.628 2717.02 168.148C2716.54 163.788 2715.52 159.148 2711.87 156.298C2709.96 154.798 2708.21 154.758 2706.65 155.658C2704.86 152.248 2701.92 150.028 2698.27 152.258C2698.05 151.447 2697.63 150.709 2697.03 150.118C2694.18 147.258 2690.44 149.498 2687.83 151.618C2684.44 154.309 2681.45 157.479 2678.97 161.028C2673.97 163.358 2669.75 167.628 2666.47 171.958C2663.19 176.288 2660.34 181.958 2663.79 187.058C2664.42 187.996 2665.18 188.835 2666.06 189.548C2660.72 192.758 2655.42 196.028 2650.18 199.408C2643.93 203.408 2637.77 207.568 2631.68 211.888C2626.41 215.598 2621.04 219.278 2616.8 224.198C2613.04 228.548 2610.21 233.508 2610.25 239.378C2610.31 246.798 2614.56 252.048 2618.78 257.738C2623.2 263.685 2627.53 269.685 2631.78 275.738C2632.92 277.368 2634.14 278.978 2635.21 280.648C2636.28 282.318 2636.65 282.548 2634.63 283.388C2631.14 284.858 2626.44 284.788 2622.7 285.388C2609.34 287.548 2596.11 290.438 2582.78 292.778C2575.59 294.038 2568.37 295.118 2561.11 295.878C2557.6 296.248 2554.11 296.508 2550.57 296.788C2545.93 297.158 2542.46 295.368 2538.57 293.118C2534.68 290.868 2527.74 286.118 2523.06 288.568C2517.91 291.228 2520.54 298.478 2521.36 302.868C2522.68 310.159 2524.68 317.309 2527.36 324.218C2528.14 326.218 2528.67 328.628 2530.69 329.638C2531.4 330.008 2532.19 330.217 2532.99 330.25C2533.79 330.283 2534.59 330.139 2535.33 329.828C2537.42 328.668 2539.27 325.588 2540.97 323.878C2543.26 321.345 2546.08 319.35 2549.23 318.038C2552.83 316.728 2556.99 316.608 2560.77 316.168C2564.55 315.728 2568.48 315.308 2572.34 314.948C2586.01 313.658 2599.72 312.948 2613.43 312.128C2620.55 311.718 2627.66 311.268 2634.77 310.718C2641.88 310.168 2649.63 308.458 2656.67 310.038C2660.36 310.868 2662.26 313.088 2664.81 315.598C2666.95 317.707 2669.37 319.522 2671.99 320.998C2676.83 323.668 2682.26 325.069 2687.79 325.068C2686.79 331.068 2685.36 337.018 2683.93 342.898C2681.43 353.188 2678.63 363.398 2675.75 373.588C2672.55 384.898 2669.21 396.168 2665.84 407.438C2665.57 407.898 2665.28 408.348 2664.98 408.778C2663.35 411.068 2662.66 413.838 2661.74 416.468C2660.49 419.913 2659.44 423.429 2658.61 426.998C2657.77 430.646 2657.14 434.338 2656.73 438.058C2656.47 438.978 2656.2 439.898 2655.94 440.828C2655.84 441.142 2655.86 441.482 2656.01 441.778C2653.38 447.978 2655.85 453.168 2660.32 456.688C2661.15 457.78 2662.13 458.756 2663.22 459.588C2666.82 462.308 2671.55 462.048 2676.04 461.728C2679.04 461.848 2682.14 461.728 2685.21 461.788C2690.21 461.888 2695.21 462.058 2700.14 462.268C2701.33 462.518 2702.47 462.979 2703.5 463.628C2703.5 463.708 2703.5 463.788 2703.5 463.868C2703.51 464.147 2703.6 464.418 2703.75 464.65C2703.91 464.882 2704.12 465.065 2704.38 465.178C2704.38 472.298 2705.98 479.358 2707.44 486.298C2709.1 494.158 2710.84 501.998 2712.58 509.838C2716.1 525.758 2719.58 541.708 2722.11 557.838C2722.72 561.738 2723.02 565.768 2724.02 569.598C2724.77 572.468 2726.02 575.198 2726.74 578.068C2728.31 583.998 2730.16 594.248 2723.74 597.998C2720.68 599.778 2716.74 599.478 2713.32 599.528C2709.11 599.588 2704.89 599.631 2700.68 599.658C2691.79 599.718 2682.89 599.718 2674 599.658C2639.59 599.348 2605.19 598.148 2570.79 596.888C2564.07 596.638 2550.01 598.548 2549.33 589.168C2549.09 585.778 2550.82 582.038 2551.97 578.878C2553.24 575.388 2554.76 571.978 2555.97 568.458C2556.97 565.518 2556.9 562.458 2558.28 559.678C2559.66 556.898 2559.91 553.158 2560.66 550.008C2562.44 542.578 2566.36 535.708 2569.07 528.578C2572.18 520.358 2584.53 499.468 2569.21 496.048C2562.15 494.468 2554.94 495.048 2547.79 495.408C2543.98 495.666 2540.16 495.64 2536.35 495.328C2534.12 495.108 2530.88 495.278 2529.96 492.768C2529.16 490.568 2530.2 488.048 2530.89 485.958C2535.62 471.503 2542.5 457.846 2551.31 445.448C2555.6 439.602 2560.53 434.252 2566 429.498C2568.63 427.198 2571.42 425.178 2573.84 422.668C2575.57 420.878 2577.22 419.668 2577.98 417.168C2581.54 405.348 2563.44 408.738 2557.49 410.788C2553.79 412.082 2550.3 413.904 2547.12 416.198C2547.79 413.028 2548.4 409.848 2549.04 406.718C2550.54 399.368 2552.47 391.388 2552.32 383.858C2552.22 378.948 2550.04 374.978 2544.53 375.598C2539.62 376.148 2536.16 380.718 2533.1 384.118C2528.76 388.936 2525.37 394.531 2523.1 400.608C2518.91 411.758 2514.53 422.968 2511.1 434.418C2510.92 433.418 2510.75 432.418 2510.6 431.418C2509 421.148 2507.14 410.878 2503.6 401.078C2498.6 387.168 2496.6 369.368 2484.6 359.318C2484.37 359.109 2484.09 358.975 2483.78 358.935C2483.47 358.896 2483.16 358.953 2482.89 359.098C2477.11 362.098 2477.17 371.678 2477.1 377.148C2477.06 387.433 2477.89 397.703 2479.58 407.848C2481.24 418.358 2483.58 428.748 2486.15 439.078C2487.38 444.038 2488.63 448.985 2489.9 453.918C2490.57 456.485 2491.23 459.055 2491.9 461.628C2491.9 461.808 2491.98 461.978 2492.02 462.158C2491.17 460.684 2490.46 459.134 2489.89 457.528C2488.3 452.951 2486.27 448.543 2483.81 444.368C2479.04 436.331 2473.33 428.886 2466.81 422.188C2460.6 415.728 2453.4 409.848 2445.1 406.308C2438.85 403.628 2430.3 401.578 2423.57 403.858C2414.22 407.018 2428.12 416.418 2431.11 418.498C2435.22 421.348 2439.67 423.868 2443.53 427.048C2445.86 428.978 2448.43 430.318 2450.71 432.388C2454.36 435.698 2457.93 439.078 2461.35 442.628C2467.85 449.378 2473.86 456.748 2478.05 465.178C2480.05 469.137 2481.52 473.339 2482.44 477.678C2483.07 480.748 2485.14 489.498 2481.51 491.058C2476.29 493.288 2469.59 492.698 2464.04 492.588C2460.31 492.508 2456.57 492.398 2452.84 492.218C2449.62 492.058 2446.2 491.388 2442.99 491.608C2436.93 492.038 2432.93 498.398 2432.93 504.178C2432.93 506.178 2433.85 508.258 2434.37 510.178C2435.04 512.711 2435.74 515.248 2436.48 517.788C2437.93 523.061 2439.4 528.328 2440.89 533.588C2443.68 543.448 2446.57 553.298 2449.63 563.078C2451.04 567.571 2452.48 572.048 2453.96 576.508C2454.8 579.058 2455.67 581.588 2456.52 584.128C2457.05 585.718 2457.76 587.418 2457.52 589.128C2456.52 594.668 2447.52 595.128 2443.29 595.438C2437.94 595.818 2432.57 595.548 2427.23 595.908C2403.91 597.508 58.69 600.4 0 599V601.09C55.75 602.39 2398.74 599.758 2419.63 599.088C2425.27 598.908 2430.86 598.578 2436.5 598.508C2441.79 598.448 2447.39 598.378 2452.5 596.778C2456.23 595.608 2459.91 593.288 2460.28 589.038C2460.53 586.198 2459.28 583.448 2458.34 580.828C2456.54 575.495 2454.79 570.135 2453.08 564.748C2449.98 554.948 2447.08 545.098 2444.26 535.218C2442.89 530.405 2441.53 525.588 2440.2 520.768C2438.81 515.768 2436.9 510.638 2435.99 505.528C2435.38 502.098 2437.22 496.818 2440.48 495.128C2443.31 493.678 2447.16 494.728 2450.18 494.918C2457.03 495.338 2463.96 495.638 2470.82 495.478C2474.89 495.378 2482.91 495.538 2485.44 491.648C2487.07 489.128 2486.16 484.308 2485.85 481.488C2485.36 477.187 2484.32 472.968 2482.74 468.938C2476.39 452.588 2463.13 439.488 2450.16 428.158C2448.43 426.648 2446.37 425.738 2444.54 424.328C2442.71 422.918 2440.54 421.518 2438.54 420.168C2434.27 417.318 2429.79 414.578 2426 411.108C2425.27 410.448 2422.71 408.418 2423.21 407.208C2423.96 405.388 2430.21 405.908 2431.58 405.958C2442.76 406.398 2452.77 412.898 2460.75 420.258C2468.82 427.719 2475.75 436.332 2481.31 445.818C2484.26 450.888 2485.86 456.288 2488.25 461.568C2489 463.228 2490.39 464.568 2490.89 466.338C2491.22 467.498 2491.03 468.438 2492.28 469.098H2492.37C2492.65 469.518 2492.96 469.908 2493.2 470.238C2493.36 470.493 2493.61 470.689 2493.89 470.797C2494.17 470.906 2494.48 470.922 2494.77 470.843C2495.07 470.764 2495.33 470.594 2495.52 470.358C2495.71 470.121 2495.82 469.831 2495.83 469.528C2495.88 468.291 2495.74 467.054 2495.42 465.858C2495.33 464.609 2495.15 463.368 2494.87 462.148C2494.29 459.798 2493.69 457.438 2493.09 455.088C2491.95 450.578 2490.79 446.088 2489.66 441.558C2487.34 432.298 2485.14 423.008 2483.4 413.628C2481.59 404.221 2480.45 394.697 2480 385.128C2479.81 380.308 2479.44 375.128 2480.21 370.318C2480.63 367.698 2481.29 363.938 2483.46 362.118C2494.21 371.938 2496.08 388.778 2500.83 401.858C2504.09 410.858 2505.92 420.228 2507.43 429.628C2508.05 433.448 2508.61 437.268 2509.2 441.088C2508.85 442.458 2508.51 443.818 2508.2 445.188C2506.92 450.758 2504.99 456.288 2509.98 460.478C2510.16 460.649 2510.38 460.771 2510.62 460.833C2510.86 460.894 2511.11 460.892 2511.35 460.828C2511.61 460.8 2511.84 460.686 2512.03 460.504C2512.21 460.322 2512.32 460.083 2512.35 459.828C2514.06 453.778 2513.35 447.178 2512.22 440.758C2512.54 439.565 2512.87 438.375 2513.22 437.188C2515.22 430.108 2517.74 423.188 2520.29 416.258C2522.84 409.328 2524.85 402.318 2528.18 395.918C2531.11 390.383 2534.99 385.405 2539.64 381.208C2541.78 379.268 2546.17 376.498 2548.71 379.648C2550.66 382.068 2549.26 387.828 2548.91 390.558C2547.91 398.378 2546.33 406.118 2544.6 413.798C2544.2 415.578 2543.8 417.358 2543.38 419.128C2539.75 422.353 2536.52 426.01 2533.78 430.018C2530.64 434.597 2527.98 439.49 2525.85 444.618C2523.64 449.808 2522.53 455.448 2520.18 460.528C2519.49 462.048 2518.6 463.798 2519.39 465.458C2520.25 467.278 2522.45 467.408 2524.17 466.748C2526.65 465.798 2527.88 463.498 2529.05 461.288C2530.8 457.968 2532.56 454.668 2534.26 451.288C2537.82 444.495 2540.88 437.453 2543.42 430.218C2544.51 427.018 2545.42 423.708 2546.16 420.358C2547.7 419.131 2549.31 418.009 2551 416.998C2555.74 414.043 2561.11 412.244 2566.68 411.748C2568.77 411.568 2573.75 410.848 2575.09 412.888C2576.91 415.648 2574.09 418.258 2572.43 420.018C2567.99 424.748 2562.6 428.508 2558.05 433.178C2553.64 437.697 2549.69 442.633 2546.24 447.918C2538.78 459.374 2532.78 471.72 2528.38 484.668C2527.53 487.178 2526.68 489.578 2527.02 492.258C2527.4 495.258 2528.02 496.678 2530.96 497.348C2537.74 498.908 2544.73 498.428 2551.62 498.078C2555.19 497.83 2558.77 497.786 2562.35 497.948C2565.84 498.188 2571.27 498.388 2573.12 501.868C2574.97 505.348 2573.39 509.598 2572.34 513.068C2571.2 516.858 2569.34 520.268 2567.79 523.908C2565.15 530.318 2562.5 536.778 2559.96 543.238C2558.78 546.355 2557.86 549.562 2557.2 552.828C2556.99 554.437 2556.65 556.029 2556.2 557.588C2555.82 558.588 2555.2 559.328 2554.85 560.318C2553.8 563.318 2553.73 566.568 2552.58 569.628C2551.43 572.688 2550.08 575.998 2548.93 579.218C2547.19 584.148 2545.14 589.618 2548.11 594.518C2550.93 599.178 2557.62 599.248 2562.48 599.448C2570.42 599.778 2578.36 600.028 2586.29 600.308C2618.35 601.458 2650.41 602.438 2682.48 602.578C2690.44 602.618 2698.4 602.598 2706.35 602.518C2712.04 602.468 2719.07 603.438 2724.35 600.928C2734.47 596.178 2730.93 581.308 2728.11 573.158C2725.73 566.298 2725.2 559.008 2723.99 551.878C2722.74 544.478 2721.31 537.118 2719.78 529.768C2716.73 515.038 2713.29 500.378 2710.19 485.648C2708.63 478.198 2706.85 470.648 2707.29 463.008C2707.31 462.902 2707.31 462.794 2707.29 462.688C2733.89 464.008 2760.43 466.138 2787.08 466.208C2795.75 466.208 2804.39 465.938 2813.02 465.398C2812.22 474.398 2811.43 483.398 2810.64 492.398C2809.55 505.735 2809.23 519.125 2809.71 532.498C2810.16 547.658 2810.8 562.838 2810.6 578.008C2810.6 580.401 2810.54 582.791 2810.42 585.178C2807.06 585.068 2803.71 585.058 2800.37 585.178C2796.17 585.358 2791.53 585.938 2787.99 588.418C2785.37 590.248 2785.44 592.938 2788.14 594.628C2791.62 596.798 2796.35 597.338 2800.35 597.698C2803.53 597.978 2808.45 598.548 2811.26 596.588C2812.86 595.478 2812.71 593.798 2812.86 591.998C2812.96 590.658 2813.04 589.318 2813.12 587.998C2823.63 588.508 2836.55 589.928 2846.82 590.998C2868.82 593.418 2972.12 595.178 2994.97 596.998V595.238L2995 595.278ZM2510.41 453.998C2510.28 454.057 2510.15 454.124 2510.03 454.198C2509.9 454.28 2509.77 454.374 2509.66 454.478C2509.52 452.566 2509.73 450.645 2510.28 448.808C2510.44 450.533 2510.49 452.267 2510.41 453.998ZM2538.47 435.498C2535.64 442.297 2532.46 448.945 2528.94 455.418L2526.6 459.848C2526.25 460.616 2525.85 461.364 2525.42 462.088C2524.85 462.908 2521.96 465.208 2522.18 462.918C2522.27 461.918 2523.18 460.828 2523.57 459.918C2523.96 458.81 2524.3 457.682 2524.57 456.538C2526.07 451.198 2528.06 446.009 2530.52 441.038C2533.5 434.849 2537.41 429.148 2542.1 424.128C2541.13 428.004 2539.92 431.815 2538.47 435.538V435.498ZM2831.83 323.998C2833.09 329.488 2834.29 334.998 2835.5 340.488C2837.94 351.668 2840.38 362.838 2843.23 373.918C2846.17 385.308 2849.75 396.488 2852.23 407.988C2853.47 413.648 2854.6 419.328 2855.83 424.988C2857.13 430.988 2859.35 437.368 2857.69 443.558C2856.35 448.558 2851.69 452.738 2847.4 455.228C2843.07 457.636 2838.38 459.325 2833.51 460.228C2827.73 461.363 2821.88 462.108 2816 462.458L2817.05 450.218C2819.15 425.848 2821.39 401.498 2824.29 377.218C2825.78 364.758 2827.29 352.438 2828.11 339.908C2828.55 333.528 2828.93 327.128 2829.11 320.728C2829.19 318.548 2829.35 316.248 2829.38 313.968C2829.51 314.508 2829.65 315.038 2829.78 315.578C2830.5 318.405 2831.18 321.211 2831.83 323.998ZM2813.44 129.428C2813.68 129.593 2813.97 129.677 2814.26 129.668C2818.7 131.098 2822.58 134.238 2825.84 137.618C2836.52 148.708 2844.11 162.448 2850.84 176.178C2854.33 183.298 2858.84 190.828 2860.84 198.458C2861.6 201.388 2863.13 204.168 2864.37 206.938C2866.21 211.038 2868.05 215.148 2869.66 219.348C2870.99 222.808 2871.78 226.538 2873.23 229.908C2873.79 231.198 2874.64 232.328 2875.23 233.608C2876.23 235.808 2876.23 238.218 2876.97 240.488C2879.31 247.768 2882.49 254.488 2883.88 262.128C2885.34 270.128 2885.18 278.958 2881.34 286.298C2877.63 293.378 2869.78 295.418 2862.71 297.618C2845.98 302.848 2829.18 304.178 2811.71 304.268C2794.46 304.348 2777.22 303.788 2759.97 303.588C2749.97 303.468 2739.97 303.571 2729.97 303.898C2736.85 297.358 2743.41 290.148 2747.86 282.098L2748.06 281.718C2749.85 282.358 2751.73 282.663 2753.63 282.618C2760.89 282.178 2767.87 279.958 2774.63 277.418C2781.99 274.668 2789.07 271.928 2796.76 270.238C2804.7 268.478 2812.88 267.718 2820.87 266.038C2825.23 265.118 2829.61 264.298 2834 263.478C2836.44 268.418 2841 271.478 2846.73 270.118C2850.73 269.178 2857.06 265.498 2854.04 260.538C2851.34 256.118 2844.46 258.728 2840.52 259.368C2838.86 259.638 2837.2 259.938 2835.52 260.238C2834.94 258.728 2834.52 257.168 2834.02 255.748C2832.67 251.668 2831.56 247.508 2830.02 243.478C2827.11 236.252 2823.64 229.261 2819.65 222.568C2815.99 216.128 2812.51 208.888 2807.65 203.288C2806.53 201.988 2806.04 200.488 2804.89 199.238C2803.71 198.105 2802.7 196.805 2801.89 195.378C2800.36 192.308 2798 189.838 2796.2 186.858C2792 179.918 2787.77 173.098 2786.3 164.978C2784.78 156.804 2786.49 148.357 2791.09 141.428C2795 135.538 2800.17 129.498 2807.72 128.888C2809.64 128.732 2811.58 128.922 2813.44 129.448V129.428ZM2719.38 302.998C2717.98 303.578 2716.54 304.128 2715.09 304.628C2712.67 304.778 2710.24 304.928 2707.81 305.108C2703.36 305.428 2698.87 305.758 2695.02 308.108C2693.61 308.052 2692.21 307.922 2690.81 307.718C2688.81 307.418 2685.94 307.118 2684.17 306.058C2680.43 303.818 2685.17 303.478 2687.22 303.308C2692.32 302.878 2697.39 302.058 2702.51 301.928C2702.69 301.931 2702.88 301.896 2703.05 301.826C2703.22 301.755 2703.37 301.651 2703.5 301.518C2703.62 301.386 2703.72 301.229 2703.79 301.057C2703.85 300.885 2703.88 300.701 2703.87 300.518C2703.88 300.334 2703.86 300.149 2703.8 299.975C2703.73 299.801 2703.64 299.643 2703.51 299.511C2703.38 299.378 2703.22 299.275 2703.05 299.207C2702.88 299.139 2702.69 299.109 2702.51 299.118C2701.46 299.043 2700.41 299.043 2699.36 299.118C2699.14 299.147 2698.94 299.222 2698.75 299.338C2696.07 299.589 2693.38 299.636 2690.69 299.478C2688.5 299.286 2686.36 298.77 2684.32 297.948C2688.22 296.948 2692.16 296.118 2696.15 295.488C2700.8 294.758 2705.47 294.738 2709.94 293.138C2710.24 293.061 2710.51 292.88 2710.69 292.625C2710.88 292.371 2710.96 292.06 2710.94 291.748C2710.97 291.442 2710.88 291.136 2710.7 290.89C2710.51 290.645 2710.24 290.476 2709.94 290.418C2706.57 289.468 2703.2 289.168 2699.8 288.418C2699.08 288.268 2697.99 288.278 2697.56 287.608C2696.98 286.698 2699.63 286.478 2700.3 286.278C2702.6 285.673 2704.94 285.255 2707.3 285.028C2715.09 284.168 2722.46 283.638 2730.04 281.508C2734.25 280.328 2738.34 279.608 2742.71 280.328C2743.5 280.47 2744.28 280.653 2745.05 280.878C2744.25 282.411 2743.34 283.884 2742.33 285.288C2739.69 288.851 2736.75 292.177 2733.53 295.228C2729.74 298.738 2724.16 300.998 2719.38 302.998ZM2726.69 302.998L2725.53 304.108L2724 304.168C2724.89 303.778 2725.8 303.388 2726.69 302.998ZM2722.52 306.938L2721.07 308.298C2713.97 315.117 2705.06 319.748 2695.4 321.638C2694.4 321.828 2693.29 321.968 2692.24 322.078C2692.32 321.728 2692.4 321.388 2692.49 321.078C2693.4 318.14 2694.05 315.129 2694.43 312.078C2694.89 311.649 2695.38 311.255 2695.9 310.898C2702.72 310.885 2709.49 309.687 2715.9 307.358C2718.11 307.138 2720.32 306.998 2722.52 306.918V306.938ZM2836.86 262.998C2839.4 262.525 2841.94 262.041 2844.48 261.548C2845.91 261.189 2847.37 260.988 2848.84 260.948C2851.5 261.018 2852.76 263.048 2850.93 265.148C2848.43 267.998 2842.86 268.468 2839.93 266.468C2838.64 265.575 2837.59 264.384 2836.86 262.998ZM2794 106.648C2792.8 105.778 2791.94 104.526 2791.55 103.098C2791.3 102.18 2791.14 101.238 2791.08 100.288C2791.84 102.5 2792.82 104.631 2794 106.648ZM2664.4 66.3979C2665.17 56.22 2668.73 46.4511 2674.69 38.1679C2674.84 37.9675 2674.93 37.7275 2674.94 37.4779C2682.37 25.8279 2692.81 14.4779 2705.41 8.72791C2718.01 2.97791 2732.8 1.56791 2746.41 3.83791C2753.06 4.79739 2759.48 6.97007 2765.35 10.2479C2771.35 13.7579 2775.61 18.7779 2780.18 23.8479C2782.62 26.5579 2785.18 29.1879 2787.49 31.9979C2789.17 33.9979 2790.79 37.7579 2793.32 38.9179C2795.32 39.8179 2796.48 38.6279 2797.83 37.3479C2801.06 34.2679 2805.73 34.2279 2809.83 35.4979C2817 37.7179 2822.93 43.6779 2827.01 49.7679C2831.46 56.3979 2832.01 63.8579 2833.01 71.5479C2834.23 79.2872 2836.32 86.8648 2839.23 94.1379C2840.45 97.3601 2841.85 100.506 2843.45 103.558C2844.61 105.738 2847.45 110.558 2843.13 111.008C2840.78 111.258 2838.13 109.538 2836.24 108.298C2822.39 99.2979 2817.61 80.4979 2813.52 65.6079C2811.71 58.9879 2808.74 52.0479 2804.37 46.6779C2802 43.7679 2796.95 41.1979 2794.86 45.9079C2793.58 48.7879 2795.06 52.5179 2795.09 55.4779C2795.15 60.8579 2794.09 66.1479 2793.18 71.4779C2792.42 75.8379 2791.68 80.1479 2790.75 84.4779C2790.43 85.9579 2790.14 87.4779 2789.95 88.9679C2788.5 87.4979 2786.02 87.5679 2784.04 88.2479C2782.06 88.9279 2781 89.8279 2779 89.9379C2776.44 90.0979 2773.88 90.0979 2771.32 89.9379C2768.75 89.7101 2766.23 89.1071 2763.83 88.1479C2762.32 87.5779 2759.83 87.1479 2758.64 85.9579C2757.09 84.4279 2758.92 82.3579 2759.39 80.6379C2759.71 79.4038 2759.77 78.1138 2759.54 76.8579C2758.99 73.4079 2757.06 70.1579 2755.48 67.0979C2752.82 61.9279 2749.26 55.7679 2742.48 56.1979C2736.64 56.5579 2733.17 63.1979 2734.03 68.4979C2734.37 70.3338 2734.94 72.1186 2735.73 73.8079C2736.19 74.8079 2736.73 75.8079 2737.24 76.8079C2737.91 77.7303 2738.53 78.6884 2739.09 79.6779C2738.93 79.6853 2738.77 79.6684 2738.61 79.6279C2738.06 79.5829 2737.5 79.5829 2736.95 79.6279C2735.46 79.5364 2733.97 79.3594 2732.5 79.0979C2725.56 77.9779 2719.27 77.0979 2712.21 78.4679C2706.76 79.3806 2701.4 80.7966 2696.21 82.6979C2691.43 84.6079 2685.7 87.7879 2680.38 86.5179C2677.05 85.7179 2673.78 83.3379 2671.12 81.2879C2668.77 79.4679 2665.43 76.8379 2664.4 73.7479C2664.24 71.3004 2664.24 68.8454 2664.4 66.3979ZM2740.59 170.488C2743.9 163.908 2747.7 157.578 2750.24 150.648C2751.43 147.493 2752.26 144.211 2752.7 140.868C2752.78 140.198 2752.81 139.528 2752.83 138.868C2753.75 138.158 2754.67 137.458 2755.62 136.798C2758.62 134.708 2763.76 132.518 2761.62 127.798C2759.48 123.078 2754.41 126.798 2752.22 129.338C2750.82 130.928 2750.08 132.99 2750.14 135.108C2750.14 135.938 2750.14 136.748 2750.08 137.548C2745.41 141.278 2740.77 145.768 2735.08 147.718C2728.32 150.028 2723.08 146.258 2718.54 141.608C2717.6 140.608 2715.16 139.038 2714.16 137.608C2714.64 137.389 2715.11 137.145 2715.56 136.878C2716.94 136.104 2718.08 134.964 2718.85 133.584C2719.62 132.205 2720 130.638 2719.94 129.058C2719.94 129.028 2719.94 128.998 2719.94 128.968C2719.94 128.928 2719.94 128.888 2719.94 128.848C2719.91 128.66 2719.84 128.479 2719.74 128.319C2719.64 128.159 2719.5 128.022 2719.34 127.918C2719.08 127.711 2718.76 127.61 2718.43 127.636C2718.1 127.662 2717.8 127.813 2717.58 128.058C2717.32 128.328 2717.12 128.528 2716.94 128.728C2714.72 130.998 2712.26 132.828 2711.22 135.728C2710.71 135.903 2710.17 135.968 2709.63 135.92C2709.09 135.871 2708.57 135.711 2708.1 135.448C2706.9 134.568 2706.8 132.168 2706.1 130.838C2705.32 129.675 2704.62 128.462 2704 127.208C2704.46 126.184 2704.66 125.059 2704.58 123.938C2704.57 123.662 2704.49 123.394 2704.33 123.166C2704.18 122.938 2703.96 122.761 2703.71 122.655C2703.45 122.548 2703.17 122.519 2702.9 122.569C2702.63 122.619 2702.38 122.748 2702.18 122.938C2701.73 123.409 2701.39 123.975 2701.19 124.596C2700.99 125.216 2700.94 125.873 2701.03 126.518C2700.08 127.368 2698.96 128.003 2697.74 128.378C2695.41 129.378 2693.74 129.378 2693.15 126.488C2692.3 122.388 2692.23 118.308 2690.47 114.398C2689.47 112.258 2687.53 109.128 2684.81 110.528L2684.64 110.628C2684.18 109.766 2683.65 108.949 2683.04 108.188C2679.5 103.528 2674.13 100.188 2671.34 95.0479C2669.01 90.7279 2666.69 87.0479 2665.65 82.1379C2665.48 81.3679 2665.34 80.5979 2665.2 79.8279C2667.28 81.8932 2669.57 83.7333 2672.03 85.3179C2674.3 86.9875 2676.83 88.2838 2679.51 89.1579C2683.35 90.1579 2687.51 89.1579 2691.12 87.7979C2700.51 84.3579 2710.12 80.4579 2720.33 80.2979C2726.28 80.2079 2731.95 82.4679 2737.88 82.4479C2739.33 82.4479 2741.47 82.3779 2742.05 80.7479C2742.14 80.4251 2742.17 80.0868 2742.13 79.7534C2742.09 79.42 2741.98 79.0984 2741.81 78.8079C2740.97 76.8079 2739.39 74.9179 2738.46 72.8079C2736.56 68.6379 2735.64 62.5279 2740.32 59.6679C2743.41 57.7879 2747.16 59.6679 2749.32 62.0479C2752.16 65.1479 2754.09 69.9379 2755.71 73.7879C2756.51 75.4046 2756.89 77.1964 2756.81 78.9979C2756.62 80.7279 2755.45 82.1679 2755.19 83.8879C2754.81 86.4379 2756.19 87.9979 2758.4 89.0379C2761.98 90.7968 2765.81 91.991 2769.75 92.5779C2773.75 93.0779 2779.25 93.7079 2782.94 91.9279C2783.94 91.4579 2785.47 90.2479 2786.61 90.5379C2788.51 91.0079 2788.27 93.4079 2788.25 94.8179C2788.14 97.1534 2788.21 99.4942 2788.47 101.818C2788.68 103.943 2789.47 105.972 2790.74 107.688C2792.12 109.378 2794.16 110.028 2795.84 111.328C2800.87 115.244 2805.16 120.029 2808.51 125.458C2808.67 125.742 2808.93 125.956 2809.24 126.058C2796.12 126.058 2785.95 140.538 2783.73 152.308C2782.44 159.893 2783.39 167.69 2786.48 174.738C2788.02 178.255 2789.83 181.648 2791.89 184.888L2795.31 190.538C2796.31 192.208 2797.57 193.448 2798.66 195.008C2799.55 196.268 2800 197.758 2800.94 199.008C2801.88 200.258 2803 201.128 2803.83 202.428C2805.92 205.708 2808.31 208.728 2810.33 212.098C2815.05 219.998 2819.76 227.908 2823.81 236.168C2827.7 244.118 2829.68 252.608 2832.9 260.758C2826.48 262.008 2820.08 263.418 2813.65 264.668C2804.88 266.358 2795.75 266.818 2787.25 269.728C2779.11 272.518 2771.25 276.188 2762.9 278.298C2758.41 279.438 2753.9 280.408 2749.41 279.078C2751.36 274.762 2752.36 270.074 2752.32 265.336C2752.29 260.598 2751.23 255.925 2749.21 251.638C2746.32 245.654 2742.59 240.118 2738.12 235.198C2738.7 233.777 2739.37 232.391 2740.12 231.048C2742.43 225.549 2743.01 219.475 2741.78 213.638C2740.14 204.988 2735.78 197.058 2730.48 189.928C2734.44 183.878 2737.34 176.998 2740.59 170.488ZM2752.93 135.378C2752.97 133.453 2753.77 131.624 2755.16 130.288C2755.82 129.688 2757.7 127.938 2758.65 128.608C2760.41 129.858 2758.02 131.988 2757.09 132.608C2755.68 133.518 2754.3 134.418 2752.93 135.378ZM2745.16 249.838C2744.43 248.588 2743.67 247.348 2742.91 246.118C2743.71 247.331 2744.46 248.571 2745.16 249.838ZM2728.72 192.388C2732.21 197.082 2735.03 202.234 2737.12 207.698C2738.92 212.241 2739.73 217.117 2739.49 221.998C2739.29 224.849 2738.59 227.643 2737.41 230.248C2736.98 231.168 2736.47 232.008 2736.03 232.878L2734.23 230.878C2734.24 230.642 2734.17 230.41 2734.04 230.216C2733.9 230.021 2733.71 229.875 2733.49 229.798C2733.32 229.725 2733.16 229.641 2733 229.548L2730.54 226.888C2729.47 224.638 2729.44 221.708 2729.33 219.358C2728.99 215.276 2728.16 211.248 2726.88 207.358C2726.1 204.059 2725.02 200.841 2723.63 197.748C2725.56 196.194 2727.27 194.392 2728.72 192.388ZM2726.66 222.578C2723.16 218.773 2720.03 214.633 2717.34 210.218C2715.65 207.328 2713.79 204.218 2713.26 200.918C2714.97 201.228 2716.73 201.097 2718.37 200.538C2719.35 200.208 2720.31 199.787 2721.21 199.278C2721.54 199.906 2721.82 200.554 2722.07 201.218C2723.65 205.458 2724.93 209.801 2725.91 214.218C2726.43 216.608 2726.38 219.648 2726.66 222.578ZM2716.92 186.478C2717.51 184.238 2717.82 181.934 2717.86 179.618C2719.35 181.108 2720.78 182.618 2722.17 184.218C2723.81 186.098 2725.42 188.038 2726.96 190.038C2726.78 190.288 2726.6 190.538 2726.41 190.778C2725.19 192.43 2723.77 193.933 2722.2 195.258C2720.52 192.788 2718.41 190.508 2716.53 188.258L2716.41 188.148C2716.6 187.558 2716.78 186.998 2716.92 186.478ZM2719.82 196.898C2718.82 197.458 2717.75 197.869 2716.63 198.118C2715.49 198.356 2714.3 198.332 2713.17 198.048C2713.52 195.625 2714.22 193.266 2715.26 191.048C2716.89 192.913 2718.41 194.866 2719.82 196.898ZM2711.18 159.458C2714.18 162.698 2714.24 167.728 2714.53 171.838C2714.53 172.188 2714.58 172.538 2714.6 172.838C2712.62 171.188 2710.55 169.645 2708.4 168.218C2708.79 164.993 2708.6 161.726 2707.84 158.568C2708.85 157.808 2709.84 157.998 2711.18 159.458ZM2705.57 161.538C2705.78 163.196 2705.83 164.87 2705.72 166.538C2705.02 166.118 2704.31 165.708 2703.59 165.318C2704.17 164.017 2704.83 162.754 2705.57 161.538ZM2705.45 169.648C2705.35 170.558 2705.23 171.448 2705.13 172.318C2704.84 174.578 2704.67 179.908 2702.07 180.928C2700.33 181.618 2700.68 180.718 2700.52 179.208C2700.46 178.045 2700.52 176.879 2700.69 175.728C2701 173.064 2701.62 170.446 2702.54 167.928L2702.65 167.988C2703.6 168.518 2704.53 169.078 2705.45 169.648ZM2698.45 156.778C2698.45 156.328 2698.5 155.868 2698.52 155.428C2698.92 155.124 2699.34 154.86 2699.79 154.638C2702.12 153.578 2703.64 155.538 2704.54 157.638C2703.08 159.574 2701.92 161.718 2701.1 163.998C2700.1 163.488 2699.02 162.998 2697.96 162.548C2698.19 160.658 2698.35 158.728 2698.43 156.778H2698.45ZM2697.5 165.998C2697.5 165.808 2697.5 165.618 2697.58 165.418C2698.46 165.818 2699.32 166.238 2700.18 166.678C2698.83 170.734 2698 174.944 2697.71 179.208C2697.71 180.848 2697.59 182.948 2699.23 183.908C2700.87 184.868 2702.82 183.908 2704.07 182.908C2707.34 180.358 2707.58 175.458 2708.07 171.668V171.358C2710.45 173.034 2712.72 174.85 2714.88 176.798C2715.15 179.996 2714.86 183.216 2714.04 186.318C2712.97 190.038 2711.14 193.318 2710.52 196.978C2708.73 196.028 2707.05 194.718 2705.37 193.628C2700.71 190.628 2696.16 187.498 2692.54 183.448C2692.53 183.062 2692.43 182.682 2692.26 182.337C2692.09 181.991 2691.84 181.688 2691.54 181.448H2691.72C2693.72 180.988 2694.07 179.038 2694.64 177.338C2695.91 173.644 2696.86 169.851 2697.5 165.998ZM2689 177.738C2688.66 177.594 2688.32 177.427 2688 177.238L2687.9 177.178C2682.9 174.088 2686.9 167.548 2690.9 162.958C2692.25 163.328 2693.59 163.798 2694.9 164.308C2694.83 164.698 2694.78 165.018 2694.74 165.248C2694.4 167.368 2693.96 169.475 2693.43 171.568C2693.1 172.838 2692.74 174.108 2692.34 175.358C2691.73 177.428 2691.48 178.768 2689 177.738ZM2689.21 184.018C2688.48 187.018 2676.7 189.438 2675.35 189.468C2674.31 189.489 2673.26 189.395 2672.24 189.188L2673.83 188.238C2675.96 186.971 2678.15 185.816 2680.4 184.778C2681.76 184.134 2683.18 183.621 2684.64 183.248C2685.85 182.973 2687.07 182.816 2688.31 182.778C2688.62 183.198 2688.92 183.608 2689.23 183.998L2689.21 184.018ZM2695.35 161.548C2694.54 161.248 2693.74 160.968 2692.94 160.718C2693.68 159.958 2694.34 159.318 2694.84 158.848C2695.12 158.598 2695.41 158.308 2695.71 158.008C2695.66 159.208 2695.53 160.438 2695.37 161.548H2695.35ZM2693 151.738C2694.55 151.378 2695.3 152.508 2695.61 154.258C2693.5 155.962 2691.54 157.842 2689.75 159.878C2687.82 159.469 2685.83 159.377 2683.87 159.608C2686.2 156.898 2689.45 152.568 2693 151.738ZM2679.47 166.188C2679.95 165.173 2680.49 164.191 2681.1 163.248C2683.19 162.374 2685.47 162.031 2687.73 162.248C2687.32 162.788 2686.91 163.318 2686.53 163.858C2684.31 166.928 2682.15 170.998 2683.23 174.908C2683.46 175.62 2683.8 176.295 2684.23 176.908C2681.84 176.738 2679.38 176.098 2678.36 173.908C2677.19 171.598 2678.43 168.408 2679.46 166.188H2679.47ZM2665.47 179.288C2667.12 174.288 2671.64 169.678 2675.71 166.448L2676.34 165.958C2675.62 167.71 2675.21 169.575 2675.12 171.468C2675.02 172.899 2675.35 174.327 2676.06 175.572C2676.77 176.818 2677.84 177.825 2679.12 178.468C2680.73 179.227 2682.47 179.659 2684.24 179.738C2685.35 179.828 2685.83 179.738 2686.31 180.098C2680.13 180.628 2674.31 184.698 2669.09 187.758L2668.87 187.898C2667.32 187.159 2666.11 185.859 2665.48 184.261C2664.85 182.663 2664.85 180.886 2665.48 179.288H2665.47ZM2668.47 315.148C2665.72 312.798 2663.79 309.858 2660.4 308.358C2656.4 306.568 2651.57 306.548 2647.23 306.868C2627.76 308.308 2608.23 309.508 2588.79 310.868C2578.33 311.588 2567.89 312.518 2557.48 313.808C2553.65 314.288 2549.83 314.578 2546.32 316.328C2542.62 318.168 2539.72 321.158 2536.93 324.138C2535.93 325.218 2534.68 327.188 2533.39 327.458C2531.01 327.948 2529.6 322.208 2528.97 320.458C2527.14 315.326 2525.67 310.074 2524.57 304.738C2524.05 302.185 2523.6 299.625 2523.22 297.058C2522.95 295.228 2522.01 292.588 2524.09 291.238C2525.57 290.238 2527.39 291.068 2528.82 291.558C2533.73 293.228 2537.82 296.488 2542.53 298.438C2547.01 300.278 2551.26 299.658 2555.98 299.248C2561.12 298.808 2566.25 298.248 2571.36 297.498C2580.54 296.208 2589.65 294.498 2598.75 292.698C2608.25 290.858 2617.75 289.018 2627.31 287.568C2630.8 287.038 2635.86 287.568 2638.21 284.498C2640.4 281.608 2637.49 279.008 2635.76 276.498C2629.7 267.838 2623.26 259.498 2617.14 250.838C2613.89 246.268 2611.82 240.088 2613.67 234.498C2615.23 229.768 2618.94 225.658 2622.54 222.378C2630.15 215.428 2639.35 209.858 2647.94 204.218C2654.81 199.718 2661.78 195.385 2668.83 191.218C2671.64 192.262 2674.66 192.568 2677.62 192.108C2681.72 191.628 2688.39 189.778 2691.25 186.378C2694.81 190.098 2699.18 192.988 2703.48 195.788C2705.65 197.348 2707.93 198.742 2710.31 199.958C2710.31 200.158 2710.31 200.348 2710.31 200.538C2710.66 204.958 2713.31 209.028 2715.53 212.738C2717.74 216.325 2720.26 219.709 2723.07 222.848C2724.68 224.668 2726.32 226.458 2727.97 228.248C2728.65 229.745 2729.79 230.985 2731.23 231.788C2732.52 233.198 2733.8 234.618 2735.06 236.068C2734.9 239.528 2737.35 242.538 2739.06 245.358C2741.67 249.588 2744.44 253.798 2746.33 258.418C2747.62 261.56 2748.26 264.928 2748.23 268.323C2748.19 271.718 2747.48 275.072 2746.13 278.188C2743.09 277.317 2739.92 276.952 2736.76 277.108C2732.93 277.388 2729.3 278.698 2725.62 279.678C2720.82 280.81 2715.93 281.503 2711 281.748C2707.11 281.95 2703.25 282.516 2699.47 283.438C2697.47 283.988 2694.19 284.768 2693.82 287.238C2693.49 289.418 2695.76 290.168 2697.45 290.648C2699.17 291.118 2700.92 291.485 2702.69 291.748C2700.24 292.078 2697.76 292.278 2695.32 292.658C2690.43 293.446 2685.58 294.498 2680.8 295.808C2680.51 295.896 2680.25 296.077 2680.07 296.322C2679.89 296.567 2679.8 296.864 2679.8 297.168C2680.06 300.638 2681.47 300.398 2683.88 300.738C2683.4 300.851 2682.94 300.998 2682.48 301.178C2679.35 302.458 2677.36 306.178 2681.25 307.848C2684.59 309.263 2688.12 310.179 2691.72 310.568C2691.71 310.655 2691.71 310.741 2691.72 310.828C2689.62 313.358 2688.96 316.418 2688.59 319.898C2688.51 320.678 2688.4 321.468 2688.3 322.258C2681.05 322.348 2674.02 319.824 2668.48 315.148H2668.47ZM2799.63 463.198C2775.63 463.858 2751.63 462.438 2727.69 460.988C2718.58 460.428 2709.46 459.898 2700.35 459.508C2697.7 459.092 2695.03 458.825 2692.35 458.708C2686.35 458.448 2680.27 458.548 2674.27 458.858C2671.76 458.661 2669.28 458.133 2666.91 457.288C2665.4 456.732 2663.97 455.982 2662.65 455.058C2660.65 452.348 2660.07 448.918 2659.65 445.598C2659.38 443.274 2659.33 440.93 2659.51 438.598C2662.33 428.738 2665.28 418.928 2668.24 409.108C2668.52 408.739 2668.77 408.348 2668.98 407.938C2671.63 402.558 2672.8 395.938 2674.39 390.148C2675.13 387.153 2676.03 384.202 2677.1 381.308C2678.35 378.188 2680.1 375.228 2680.86 371.928C2682.25 365.928 2683.24 359.588 2685.27 353.748C2686.48 350.248 2687.93 346.818 2689.19 343.328C2690.26 340.299 2690.78 337.101 2690.72 333.888C2690.79 330.893 2691.08 327.908 2691.6 324.958C2702.83 323.958 2713.31 318.838 2721.75 311.418C2723.47 309.898 2725.22 308.338 2726.96 306.748C2745.08 306.068 2763.22 306.458 2781.35 306.798C2796 307.078 2810.96 307.798 2825.7 306.988C2825.72 307.2 2825.79 307.404 2825.91 307.579C2826.03 307.754 2826.2 307.895 2826.39 307.988C2825.75 307.638 2826.14 307.608 2826.23 308.378C2826.32 309.148 2826.35 309.628 2826.38 310.248C2826.49 312.408 2826.46 314.578 2826.38 316.738C2826.28 322.288 2825.98 327.838 2825.65 333.378C2825.12 342.228 2824.65 351.138 2823.65 359.948C2819.53 394.168 2816.28 428.428 2813.22 462.738C2808.7 462.938 2804.12 463.068 2799.63 463.198ZM2810.32 587.918C2810.24 589.448 2810.47 593.548 2809.65 594.278C2808.83 595.008 2806.28 595.008 2805.11 595.038C2802.73 595.097 2800.35 594.949 2797.99 594.598C2796.63 594.398 2788.81 593.438 2788.75 591.408C2788.69 589.378 2796.75 588.228 2798.5 588.088C2802.44 587.802 2806.39 587.722 2810.33 587.848C2810.32 587.87 2810.32 587.894 2810.32 587.918Z" fill="#AB8A83"/>
</svg>
